<mxfile host="app.diagrams.net" modified="2024-01-18T07:07:20.907Z" agent="Mozilla/5.0 (Windows NT 10.0; Win64; x64) AppleWebKit/537.36 (KHTML, like Gecko) Chrome/120.0.0.0 Safari/537.36" etag="tKFP2tj_-bZYzSSlN_bg" version="22.1.21" type="github">
  <diagram name="第 1 页" id="rQ2lWjcHgX8oQIh0ghAI">
    <mxGraphModel dx="1434" dy="746" grid="1" gridSize="10" guides="1" tooltips="1" connect="1" arrows="1" fold="1" page="1" pageScale="1" pageWidth="827" pageHeight="1169" background="#99CCFF" math="0" shadow="0">
      <root>
        <mxCell id="0" />
        <mxCell id="1" parent="0" />
        <mxCell id="YomFTz4jYWi4zwz7rAQW-1" value="Web端" style="shape=umlLifeline;perimeter=lifelinePerimeter;whiteSpace=wrap;html=1;container=1;dropTarget=0;collapsible=0;recursiveResize=0;outlineConnect=0;portConstraint=eastwest;newEdgeStyle={&quot;curved&quot;:0,&quot;rounded&quot;:0};fillColor=#ffe6cc;strokeColor=#d79b00;strokeWidth=1;fontStyle=1;fontSize=14;" parent="1" vertex="1">
          <mxGeometry x="320" y="150" width="100" height="630" as="geometry" />
        </mxCell>
        <mxCell id="YomFTz4jYWi4zwz7rAQW-4" value="" style="html=1;points=[[0,0,0,0,5],[0,1,0,0,-5],[1,0,0,0,5],[1,1,0,0,-5]];perimeter=orthogonalPerimeter;outlineConnect=0;targetShapes=umlLifeline;portConstraint=eastwest;newEdgeStyle={&quot;curved&quot;:0,&quot;rounded&quot;:0};fillColor=#ffe6cc;strokeColor=#d79b00;fontStyle=1;fontSize=14;" parent="YomFTz4jYWi4zwz7rAQW-1" vertex="1">
          <mxGeometry x="45" y="80" width="10" height="60" as="geometry" />
        </mxCell>
        <mxCell id="YomFTz4jYWi4zwz7rAQW-8" value="" style="html=1;points=[[0,0,0,0,5],[0,1,0,0,-5],[1,0,0,0,5],[1,1,0,0,-5]];perimeter=orthogonalPerimeter;outlineConnect=0;targetShapes=umlLifeline;portConstraint=eastwest;newEdgeStyle={&quot;curved&quot;:0,&quot;rounded&quot;:0};fillColor=#ffe6cc;strokeColor=#d79b00;fontStyle=1;fontSize=14;" parent="YomFTz4jYWi4zwz7rAQW-1" vertex="1">
          <mxGeometry x="45" y="190" width="10" height="60" as="geometry" />
        </mxCell>
        <mxCell id="YomFTz4jYWi4zwz7rAQW-39" value="" style="html=1;points=[[0,0,0,0,5],[0,1,0,0,-5],[1,0,0,0,5],[1,1,0,0,-5]];perimeter=orthogonalPerimeter;outlineConnect=0;targetShapes=umlLifeline;portConstraint=eastwest;newEdgeStyle={&quot;curved&quot;:0,&quot;rounded&quot;:0};fillColor=#ffe6cc;strokeColor=#d79b00;fontStyle=1;fontSize=14;" parent="YomFTz4jYWi4zwz7rAQW-1" vertex="1">
          <mxGeometry x="45" y="550" width="10" height="60" as="geometry" />
        </mxCell>
        <mxCell id="YomFTz4jYWi4zwz7rAQW-2" value="小程序" style="shape=umlLifeline;perimeter=lifelinePerimeter;whiteSpace=wrap;html=1;container=1;dropTarget=0;collapsible=0;recursiveResize=0;outlineConnect=0;portConstraint=eastwest;newEdgeStyle={&quot;curved&quot;:0,&quot;rounded&quot;:0};fillColor=#ffe6cc;strokeColor=#d79b00;fontStyle=1;fontSize=14;" parent="1" vertex="1">
          <mxGeometry x="690" y="150" width="100" height="630" as="geometry" />
        </mxCell>
        <mxCell id="YomFTz4jYWi4zwz7rAQW-12" value="" style="html=1;points=[[0,0,0,0,5],[0,1,0,0,-5],[1,0,0,0,5],[1,1,0,0,-5]];perimeter=orthogonalPerimeter;outlineConnect=0;targetShapes=umlLifeline;portConstraint=eastwest;newEdgeStyle={&quot;curved&quot;:0,&quot;rounded&quot;:0};fillColor=#ffe6cc;strokeColor=#d79b00;fontStyle=1;fontSize=14;" parent="YomFTz4jYWi4zwz7rAQW-2" vertex="1">
          <mxGeometry x="45" y="190" width="10" height="60" as="geometry" />
        </mxCell>
        <mxCell id="YomFTz4jYWi4zwz7rAQW-20" value="" style="html=1;points=[[0,0,0,0,5],[0,1,0,0,-5],[1,0,0,0,5],[1,1,0,0,-5]];perimeter=orthogonalPerimeter;outlineConnect=0;targetShapes=umlLifeline;portConstraint=eastwest;newEdgeStyle={&quot;curved&quot;:0,&quot;rounded&quot;:0};fillColor=#ffe6cc;strokeColor=#d79b00;fontStyle=1;fontSize=14;" parent="YomFTz4jYWi4zwz7rAQW-2" vertex="1">
          <mxGeometry x="48" y="280" width="11" height="40" as="geometry" />
        </mxCell>
        <mxCell id="YomFTz4jYWi4zwz7rAQW-21" value="&lt;span style=&quot;font-size: 14px;&quot;&gt;5.wx.login()获取code&lt;/span&gt;" style="html=1;align=left;spacingLeft=2;endArrow=block;rounded=0;edgeStyle=orthogonalEdgeStyle;curved=0;rounded=0;fillColor=#ffe6cc;strokeColor=#d79b00;fontStyle=1;fontSize=14;" parent="YomFTz4jYWi4zwz7rAQW-2" edge="1">
          <mxGeometry x="0.0133" relative="1" as="geometry">
            <mxPoint x="54" y="280" as="sourcePoint" />
            <Array as="points">
              <mxPoint x="79" y="280" />
              <mxPoint x="79" y="310" />
            </Array>
            <mxPoint x="59" y="310" as="targetPoint" />
            <mxPoint as="offset" />
          </mxGeometry>
        </mxCell>
        <mxCell id="YomFTz4jYWi4zwz7rAQW-23" value="" style="html=1;points=[[0,0,0,0,5],[0,1,0,0,-5],[1,0,0,0,5],[1,1,0,0,-5]];perimeter=orthogonalPerimeter;outlineConnect=0;targetShapes=umlLifeline;portConstraint=eastwest;newEdgeStyle={&quot;curved&quot;:0,&quot;rounded&quot;:0};fillColor=#ffe6cc;strokeColor=#d79b00;fontStyle=1;fontSize=14;" parent="YomFTz4jYWi4zwz7rAQW-2" vertex="1">
          <mxGeometry x="45" y="360" width="10" height="150" as="geometry" />
        </mxCell>
        <mxCell id="YomFTz4jYWi4zwz7rAQW-3" value="后端服务" style="shape=umlLifeline;perimeter=lifelinePerimeter;whiteSpace=wrap;html=1;container=1;dropTarget=0;collapsible=0;recursiveResize=0;outlineConnect=0;portConstraint=eastwest;newEdgeStyle={&quot;curved&quot;:0,&quot;rounded&quot;:0};fillColor=#ffe6cc;strokeColor=#d79b00;fontStyle=1;fontSize=14;" parent="1" vertex="1">
          <mxGeometry x="1051" y="150" width="100" height="630" as="geometry" />
        </mxCell>
        <mxCell id="YomFTz4jYWi4zwz7rAQW-5" value="" style="html=1;points=[[0,0,0,0,5],[0,1,0,0,-5],[1,0,0,0,5],[1,1,0,0,-5]];perimeter=orthogonalPerimeter;outlineConnect=0;targetShapes=umlLifeline;portConstraint=eastwest;newEdgeStyle={&quot;curved&quot;:0,&quot;rounded&quot;:0};fillColor=#ffe6cc;strokeColor=#d79b00;fontStyle=1;fontSize=14;" parent="YomFTz4jYWi4zwz7rAQW-3" vertex="1">
          <mxGeometry x="45" y="80" width="10" height="60" as="geometry" />
        </mxCell>
        <mxCell id="YomFTz4jYWi4zwz7rAQW-24" value="" style="html=1;points=[[0,0,0,0,5],[0,1,0,0,-5],[1,0,0,0,5],[1,1,0,0,-5]];perimeter=orthogonalPerimeter;outlineConnect=0;targetShapes=umlLifeline;portConstraint=eastwest;newEdgeStyle={&quot;curved&quot;:0,&quot;rounded&quot;:0};fillColor=#ffe6cc;strokeColor=#d79b00;fontStyle=1;fontSize=14;" parent="YomFTz4jYWi4zwz7rAQW-3" vertex="1">
          <mxGeometry x="45" y="360" width="10" height="150" as="geometry" />
        </mxCell>
        <mxCell id="YomFTz4jYWi4zwz7rAQW-41" value="" style="html=1;points=[[0,0,0,0,5],[0,1,0,0,-5],[1,0,0,0,5],[1,1,0,0,-5]];perimeter=orthogonalPerimeter;outlineConnect=0;targetShapes=umlLifeline;portConstraint=eastwest;newEdgeStyle={&quot;curved&quot;:0,&quot;rounded&quot;:0};fillColor=#ffe6cc;strokeColor=#d79b00;fontStyle=1;fontSize=14;" parent="YomFTz4jYWi4zwz7rAQW-3" vertex="1">
          <mxGeometry x="45" y="550" width="10" height="60" as="geometry" />
        </mxCell>
        <mxCell id="YomFTz4jYWi4zwz7rAQW-6" value="&lt;span style=&quot;font-size: 14px;&quot;&gt;1.网页请求生成小程序码&lt;/span&gt;" style="html=1;verticalAlign=bottom;endArrow=block;curved=0;rounded=0;exitX=0;exitY=0;exitDx=0;exitDy=5;exitPerimeter=0;fillColor=#ffe6cc;strokeColor=#d79b00;fontStyle=1;fontSize=14;" parent="1" target="YomFTz4jYWi4zwz7rAQW-3" edge="1">
          <mxGeometry x="0.0011" width="80" relative="1" as="geometry">
            <mxPoint x="365" y="230" as="sourcePoint" />
            <mxPoint x="869.5" y="230" as="targetPoint" />
            <mxPoint as="offset" />
          </mxGeometry>
        </mxCell>
        <mxCell id="YomFTz4jYWi4zwz7rAQW-7" value="&lt;span style=&quot;font-size: 14px;&quot;&gt;2.返回小程序码进行展示&lt;/span&gt;" style="html=1;verticalAlign=bottom;endArrow=block;curved=0;rounded=0;fillColor=#ffe6cc;strokeColor=#d79b00;fontStyle=1;fontSize=14;" parent="1" source="YomFTz4jYWi4zwz7rAQW-3" edge="1">
          <mxGeometry x="0.0014" width="80" relative="1" as="geometry">
            <mxPoint x="865" y="290" as="sourcePoint" />
            <mxPoint x="369.5" y="290" as="targetPoint" />
            <mxPoint as="offset" />
          </mxGeometry>
        </mxCell>
        <mxCell id="YomFTz4jYWi4zwz7rAQW-13" value="&lt;span style=&quot;font-size: 14px;&quot;&gt;3.微信扫码&lt;/span&gt;" style="html=1;verticalAlign=bottom;endArrow=block;rounded=0;exitX=0;exitY=0;exitDx=0;exitDy=5;exitPerimeter=0;fillColor=#ffe6cc;strokeColor=#d79b00;fontStyle=1;fontSize=14;" parent="1" source="YomFTz4jYWi4zwz7rAQW-12" target="YomFTz4jYWi4zwz7rAQW-8" edge="1">
          <mxGeometry width="80" relative="1" as="geometry">
            <mxPoint x="705.5" y="340" as="sourcePoint" />
            <mxPoint x="380" y="340" as="targetPoint" />
            <mxPoint as="offset" />
          </mxGeometry>
        </mxCell>
        <mxCell id="YomFTz4jYWi4zwz7rAQW-14" value="&lt;span style=&quot;font-size: 14px;&quot;&gt;4.微信跳转到小程序确认登录页面&lt;/span&gt;" style="html=1;verticalAlign=bottom;endArrow=block;curved=0;rounded=0;fillColor=#ffe6cc;strokeColor=#d79b00;fontStyle=1;fontSize=14;" parent="1" source="YomFTz4jYWi4zwz7rAQW-8" target="YomFTz4jYWi4zwz7rAQW-2" edge="1">
          <mxGeometry x="-0.0014" width="80" relative="1" as="geometry">
            <mxPoint x="430" y="400" as="sourcePoint" />
            <mxPoint x="510" y="400" as="targetPoint" />
            <Array as="points">
              <mxPoint x="580" y="400" />
            </Array>
            <mxPoint as="offset" />
          </mxGeometry>
        </mxCell>
        <mxCell id="YomFTz4jYWi4zwz7rAQW-25" value="&lt;span style=&quot;font-size: 14px;&quot;&gt;6.根据code和scene请求后端获取openId&lt;/span&gt;" style="html=1;verticalAlign=bottom;endArrow=block;curved=0;rounded=0;fillColor=#ffe6cc;strokeColor=#d79b00;fontStyle=1;fontSize=14;" parent="1" target="YomFTz4jYWi4zwz7rAQW-3" edge="1">
          <mxGeometry x="-0.0014" width="80" relative="1" as="geometry">
            <mxPoint x="744" y="510" as="sourcePoint" />
            <mxPoint x="824" y="510" as="targetPoint" />
            <mxPoint as="offset" />
          </mxGeometry>
        </mxCell>
        <mxCell id="YomFTz4jYWi4zwz7rAQW-26" value="小程序码状态为0" style="text;html=1;align=center;verticalAlign=middle;resizable=0;points=[];autosize=1;strokeColor=#d79b00;fillColor=#ffe6cc;fontStyle=1;fontSize=14;" parent="1" vertex="1">
          <mxGeometry x="1101" y="240" width="130" height="30" as="geometry" />
        </mxCell>
        <mxCell id="YomFTz4jYWi4zwz7rAQW-27" value="&lt;span style=&quot;font-size: 14px;&quot;&gt;根据scene值将小程序码状态置为1&lt;/span&gt;" style="text;html=1;align=center;verticalAlign=middle;resizable=0;points=[];autosize=1;strokeColor=#d79b00;fillColor=#ffe6cc;fontStyle=1;fontSize=14;" parent="1" vertex="1">
          <mxGeometry x="1086" y="520" width="240" height="30" as="geometry" />
        </mxCell>
        <mxCell id="YomFTz4jYWi4zwz7rAQW-29" value="&lt;span style=&quot;font-size: 14px;&quot;&gt;7.返回openId和sessionKey&lt;/span&gt;" style="html=1;verticalAlign=bottom;endArrow=block;curved=0;rounded=0;fillColor=#ffe6cc;strokeColor=#d79b00;fontStyle=1;fontSize=14;" parent="1" source="YomFTz4jYWi4zwz7rAQW-24" edge="1">
          <mxGeometry width="80" relative="1" as="geometry">
            <mxPoint x="700" y="420" as="sourcePoint" />
            <mxPoint x="750" y="550" as="targetPoint" />
            <Array as="points">
              <mxPoint x="890" y="550" />
            </Array>
          </mxGeometry>
        </mxCell>
        <mxCell id="YomFTz4jYWi4zwz7rAQW-36" value="&lt;span style=&quot;font-size: 14px;&quot;&gt;8.用户点击确认登录，根据openId和scene参数请求接口&lt;/span&gt;" style="html=1;verticalAlign=bottom;endArrow=block;curved=0;rounded=0;fillColor=#ffe6cc;strokeColor=#d79b00;fontStyle=1;fontSize=14;" parent="1" target="YomFTz4jYWi4zwz7rAQW-3" edge="1">
          <mxGeometry x="0.0043" width="80" relative="1" as="geometry">
            <mxPoint x="750" y="590" as="sourcePoint" />
            <mxPoint x="830" y="590" as="targetPoint" />
            <mxPoint as="offset" />
          </mxGeometry>
        </mxCell>
        <mxCell id="YomFTz4jYWi4zwz7rAQW-37" value="&lt;span style=&quot;font-size: 14px;&quot;&gt;9.成功则返回token等信息&lt;/span&gt;" style="html=1;verticalAlign=bottom;endArrow=block;curved=0;rounded=0;fillColor=#ffe6cc;strokeColor=#d79b00;fontStyle=1;fontSize=14;" parent="1" source="YomFTz4jYWi4zwz7rAQW-3" edge="1">
          <mxGeometry x="-0.0014" width="80" relative="1" as="geometry">
            <mxPoint x="1050" y="640" as="sourcePoint" />
            <mxPoint x="750" y="640" as="targetPoint" />
            <mxPoint as="offset" />
          </mxGeometry>
        </mxCell>
        <mxCell id="YomFTz4jYWi4zwz7rAQW-38" value="&lt;span style=&quot;font-size: 14px;&quot;&gt;根据scene值判断码是否失效，未失效&lt;br style=&quot;font-size: 14px;&quot;&gt;且验证用户登录成功后，小程序码状态置为2&lt;/span&gt;" style="text;html=1;align=left;verticalAlign=middle;resizable=0;points=[];autosize=1;strokeColor=#d79b00;fillColor=#ffe6cc;fontStyle=1;fontSize=14;" parent="1" vertex="1">
          <mxGeometry x="1111" y="595" width="300" height="50" as="geometry" />
        </mxCell>
        <mxCell id="YomFTz4jYWi4zwz7rAQW-40" value="&lt;span style=&quot;font-size: 14px;&quot;&gt;web端从请求到小程序码后开始轮询获取码状态&lt;/span&gt;" style="html=1;verticalAlign=bottom;endArrow=block;curved=0;rounded=0;fillColor=#ffe6cc;strokeColor=#d79b00;fontStyle=1;fontSize=14;" parent="1" target="YomFTz4jYWi4zwz7rAQW-3" edge="1">
          <mxGeometry x="-0.0007" width="80" relative="1" as="geometry">
            <mxPoint x="380" y="700" as="sourcePoint" />
            <mxPoint x="660" y="510" as="targetPoint" />
            <mxPoint as="offset" />
          </mxGeometry>
        </mxCell>
        <mxCell id="YomFTz4jYWi4zwz7rAQW-42" value="&lt;span style=&quot;font-size: 14px;&quot;&gt;返回码状态为0为未扫码状态，1为已扫码未确认登录状态，2为登录成功状态，此时会一并返回token等信息，3为码过期状态&lt;/span&gt;" style="html=1;verticalAlign=bottom;endArrow=block;rounded=0;exitX=-0.1;exitY=0.8;exitDx=0;exitDy=0;exitPerimeter=0;fillColor=#ffe6cc;strokeColor=#d79b00;fontStyle=1;fontSize=14;" parent="1" source="YomFTz4jYWi4zwz7rAQW-41" target="YomFTz4jYWi4zwz7rAQW-39" edge="1">
          <mxGeometry x="0.0139" y="-8" width="80" relative="1" as="geometry">
            <mxPoint x="1010" y="750" as="sourcePoint" />
            <mxPoint x="380" y="750" as="targetPoint" />
            <mxPoint as="offset" />
          </mxGeometry>
        </mxCell>
      </root>
    </mxGraphModel>
  </diagram>
</mxfile>
